{"title":"The.Happening.2008.DVDRiP.XViD.AC3.Optional.NordicSub.Zen_Bud","uid":5789921,"size":1470497597,"categoryP":"video","categoryS":"movies","magnet":"?xt=urn:btih:5fa4896a4c5ba05094bf6f8ced6a9b0f3a0daa37&amp;dn=The.Happening.2008.DVDRiP.XViD.AC3.Optional.NordicSub.Zen_Bud&amp;tr=udp%3A%2F%2Ftracker.openbittorrent.com%3A80&amp;tr=udp%3A%2F%2Fopen.demonii.com%3A1337&amp;tr=udp%3A%2F%2Ftracker.coppersurfer.tk%3A6969&amp;tr=udp%3A%2F%2Fexodus.desync.com%3A6969","seeders":0,"leechers":0,"uploader":"Zen_Bud","files":-1,"time":1282809768,"description":"\nComplete name                    :  2008.avi\nFormat                           : AVI\nFile size                        : 1.37 GiB\nDuration                         : 1h 30mn\nOverall bit rate                 : 2 169 Kbps\n\nVideo\n\nFormat                           : MPEG-4 Visual\nCodec ID/Hint                    : XviD\nDuration                         : 1h 30mn\nBit rate                         : 1 710 Kbps\nWidth                            : 720 pixels\nHeight                           : 562 pixels\nDisplay aspect ratio             : 16:9\nStream size                      : 1.08 GiB (79%)\nWriting library                  : XviD 1.1.2 (UTC 2006-11-01)\n\nAudio\n\nFormat                           : AC-3\nDuration                         : 1h 30mn\nBit rate                         : 448 Kbps\nChannel(s)                       : 6 channels\nChannel positions                : Front: L C R, Side: L R, LFE\nSampling rate                    : 48.0 KHz\nBit depth                        : 16 bits\nStream size                      : 290 MiB (21%)\n\n\n*****************Nordic Subs****************","torrent":{"xt":"urn:btih:5fa4896a4c5ba05094bf6f8ced6a9b0f3a0daa37","amp;dn":"The.Happening.2008.DVDRiP.XViD.AC3.Optional.NordicSub.Zen_Bud","amp;tr":["udp%3A%2F%2Ftracker.openbittorrent.com%3A80","udp%3A%2F%2Fopen.demonii.com%3A1337","udp%3A%2F%2Ftracker.coppersurfer.tk%3A6969","udp%3A%2F%2Fexodus.desync.com%3A6969"],"infoHash":"5fa4896a4c5ba05094bf6f8ced6a9b0f3a0daa37","infoHashBuffer":{"type":"Buffer","data":[95,164,137,106,76,91,160,80,148,191,111,140,237,106,155,15,58,13,170,55]},"announce":[],"urlList":[]}}